{"title":"Pearl Harbor(2001)MPEG-4[DaScubaDude]","uid":15314363,"size":2013885833,"categoryP":"video","categoryS":"movies","magnet":"?xt=urn:btih:fe45dd8bf7adee6840a00d2f45a0e112af5f8d45&amp;dn=Pearl+Harbor%282001%29MPEG-4%5BDaScubaDude%5D&amp;tr=udp%3A%2F%2Ftracker.leechers-paradise.org%3A6969&amp;tr=udp%3A%2F%2Fzer0day.ch%3A1337&amp;tr=udp%3A%2F%2Fopen.demonii.com%3A1337&amp;tr=udp%3A%2F%2Ftracker.coppersurfer.tk%3A6969&amp;tr=udp%3A%2F%2Fexodus.desync.com%3A6969","seeders":1,"leechers":0,"uploader":"dascuba","files":2,"time":1468608882,"description":"Pearl Harbor (2001)\r\nPG-13 | 3h 3min | Action, Drama, History | 25 May 2001 (USA)\r\nPearl Harbor follows the story of two best friends, Rafe and Danny, and their love lives as they go off to join the war.\r\nDirector: Michael Bay\r\nWriter: Randall Wallace\r\nStars: Ben Affleck, Kate Beckinsale, Josh Hartnett |\r\n\r\nGeneral\r\nComplete name                            : Pearl HarborPEARL_HARBOR_DSC1_Title1_1.mp4\r\nFormat                                   : MPEG-4\r\nFormat profile                           : Base Media\r\nCodec ID                                 : isom (isom/iso2/avc1/mp41)\r\nFile size                                : 1.32 GiB\r\nDuration                                 : 2h 8mn\r\nOverall bit rate                         : 1 466 Kbps\r\nMovie name                               : PEARL_HARBOR_DSC1\r\nGenre                                    : War\r\nWriting application                      : Lavf54.6.100\r\n\r\nVideo\r\nID                                       : 1\r\nFormat                                   : AVC\r\nFormat/Info                              : Advanced Video Codec\r\nFormat profile                           :   \r\nFormat settings, CABAC                   : No\r\nFormat settings, ReFrames                : 6 frames\r\nFormat settings, GOP                     : M=1, N=60\r\nCodec ID                                 : avc1\r\nCodec ID/Info                            : Advanced Video Coding\r\nDuration                                 : 2h 8mn\r\nBit rate                                 : 1 201 Kbps\r\nWidth                                    : 720 pixels\r\nHeight                                   : 404 pixels\r\nDisplay aspect ratio                     : 16:9\r\nFrame rate mode                          : Constant\r\nFrame rate                               : 29.970 (30000/1001) fps\r\nColor space                              : YUV\r\nChroma subsampling                       : 4:2:0\r\nBit depth                                : 8 bits\r\nScan type                                : Progressive\r\nBits/(Pixel*Frame)                       : 0.138\r\nStream size                              : 1.08 GiB (82%)\r\n\r\nAudio\r\nID                                       : 2\r\nFormat                                   : AAC\r\nFormat/Info                              : Advanced Audio Codec\r\nFormat profile                           : LC\r\nCodec ID                                 : 40\r\nDuration                                 : 2h 8mn\r\nBit rate mode                            : Constant\r\nBit rate                                 : 259 Kbps\r\nChannel(s)                               : 2 channels\r\nChannel(s)_Original                      : 6 channels\r\nChannel positions                        : Front: L C R, Side: L R, LFE\r\nSampling rate                            : 44.1 KHz\r\nFrame rate                               : 43.066 fps (1024 spf)\r\nCompression mode                         : Lossy\r\nStream size                              : 238 MiB (18%)\r\nDefault                                  : Yes\r\nAlternate group                          : 1","torrent":{"xt":"urn:btih:fe45dd8bf7adee6840a00d2f45a0e112af5f8d45","amp;dn":"Pearl+Harbor%282001%29MPEG-4%5BDaScubaDude%5D","amp;tr":["udp%3A%2F%2Ftracker.leechers-paradise.org%3A6969","udp%3A%2F%2Fzer0day.ch%3A1337","udp%3A%2F%2Fopen.demonii.com%3A1337","udp%3A%2F%2Ftracker.coppersurfer.tk%3A6969","udp%3A%2F%2Fexodus.desync.com%3A6969"],"infoHash":"fe45dd8bf7adee6840a00d2f45a0e112af5f8d45","infoHashBuffer":{"type":"Buffer","data":[254,69,221,139,247,173,238,104,64,160,13,47,69,160,225,18,175,95,141,69]},"announce":[],"urlList":[]}}